# xmcd CD database file
#
# Track frame offsets:
#	150
#	19242
#	35947
#	55350
#	81182
#	111582
#
# Disc length: 4440 seconds
#
# Revision: 0
# Processed by: cddbd v1.5PL3 Copyright (c) Steve Scherf et al.
# Submitted via: CDex 1.51
#
DISCID=54115606
DTITLE=three NATION - Don't STOP! (AND DA BEAT GOES ON)
DYEAR=2004
DGENRE=JPop
TTITLE0=Don't STOP! (AND DA BEAT GOES ON)
TTITLE1=VPL
TTITLE2=Why
TTITLE3=Don't STOP! (AND DA BEAT GOES ON)-TURBO'S sigma Re-Edit
TTITLE4=Don't STOP! (AND DA BEAT GOES ON)-Instrumental
TTITLE5=CCCD DATA
EXTD=YEAR: 2004
EXTT0=
EXTT1=
EXTT2=
EXTT3=
EXTT4=
EXTT5=
PLAYORDER=
